<?xml version="1.0" standalone="no"?>
<!DOCTYPE svg PUBLIC "-//W3C//DTD SVG 20010904//EN"
 "http://www.w3.org/TR/2001/REC-SVG-20010904/DTD/svg10.dtd">
<svg version="1.0" xmlns="http://www.w3.org/2000/svg"
 width="1024.000000pt" height="1024.000000pt" viewBox="0 0 1024.000000 1024.000000"
 preserveAspectRatio="xMidYMid meet">

<g transform="translate(0.000000,1024.000000) scale(0.100000,-0.100000)"
fill="#000000" stroke="none">
<path d="M2136 6804 c-175 -42 -349 -200 -396 -361 -12 -38 -17 -42 -58 -53
-115 -29 -235 -116 -301 -219 -57 -89 -74 -153 -76 -288 l-1 -121 -54 -55
c-69 -70 -125 -162 -153 -252 -30 -94 -31 -282 -3 -365 28 -82 60 -141 108
-200 l44 -53 -24 -71 c-21 -62 -24 -85 -20 -181 4 -105 6 -115 46 -197 67
-138 198 -252 335 -293 36 -10 40 -16 62 -78 34 -98 70 -154 150 -233 54 -54
94 -83 160 -115 87 -43 90 -44 189 -44 89 0 107 4 151 27 207 109 259 397 107
596 -35 46 -94 84 -182 117 -92 34 -134 64 -160 115 -24 48 -26 129 -4 176 23
47 92 90 167 103 56 10 67 9 102 -9 49 -25 88 -25 141 -1 62 28 89 73 89 148
0 69 -17 101 -75 140 -83 57 -212 6 -239 -94 -6 -23 -15 -28 -67 -39 -34 -7
-85 -24 -114 -39 l-54 -27 -200 4 c-169 4 -212 9 -266 26 -127 41 -212 114
-266 227 -77 160 -44 350 83 486 73 78 106 89 264 89 151 0 231 12 297 43 59
27 149 112 228 213 l64 81 53 5 c94 8 147 67 147 165 0 80 -53 142 -136 158
-115 21 -220 -99 -184 -211 l12 -36 -98 -100 c-55 -55 -118 -110 -140 -124
-50 -30 -168 -46 -299 -42 l-90 3 1 85 c0 108 26 170 95 235 68 64 126 88 227
93 l82 5 0 31 c0 103 65 229 151 292 96 70 241 98 346 66 51 -15 120 -66 150
-111 42 -63 45 -96 41 -476 -4 -393 -7 -415 -63 -451 -14 -9 -60 -23 -101 -30
-88 -15 -150 -47 -236 -120 -91 -78 -148 -104 -225 -104 -50 0 -70 5 -94 23
-42 30 -135 31 -175 1 -45 -33 -67 -70 -71 -121 -12 -116 88 -202 199 -172 43
11 108 68 108 93 0 9 24 15 75 19 92 7 175 43 254 111 78 68 128 94 214 110
97 19 141 40 193 91 76 76 77 86 83 555 7 464 3 444 82 519 66 65 120 86 224
86 78 0 98 -4 153 -29 120 -56 209 -179 228 -318 6 -45 8 -48 43 -53 157 -25
244 -68 305 -153 68 -93 88 -234 48 -339 l-20 -53 47 -22 c64 -32 151 -122
185 -193 55 -112 45 -254 -20 -316 -22 -21 -35 -24 -98 -24 -99 0 -177 38
-221 109 -29 49 -30 52 -36 220 -7 185 -16 227 -71 325 -40 69 -123 151 -192
187 -52 27 -54 30 -58 76 -9 87 -79 148 -173 148 -136 0 -217 -149 -144 -268
39 -66 130 -95 208 -68 43 14 45 14 85 -14 62 -42 125 -115 154 -178 24 -52
27 -72 33 -227 7 -182 16 -226 65 -296 70 -102 180 -159 318 -168 l91 -6 29
-58 c38 -75 40 -182 7 -269 -20 -51 -110 -168 -130 -168 -3 0 -19 25 -35 56
-58 111 -175 212 -289 250 -29 10 -64 30 -79 46 -96 103 -270 62 -305 -72 -12
-43 1 -117 26 -150 64 -88 214 -94 284 -10 26 31 29 32 60 19 47 -19 125 -97
152 -149 57 -115 56 -216 -6 -339 -81 -163 -265 -314 -443 -366 -135 -39 -290
-1 -356 88 -34 45 -33 39 -4 162 14 59 18 150 23 565 6 480 7 496 28 542 11
25 40 67 63 92 37 40 48 46 84 46 131 0 215 134 156 250 -27 53 -72 83 -135
88 -65 5 -115 -17 -153 -66 -23 -31 -27 -45 -27 -104 0 -69 0 -69 -48 -120
-56 -58 -103 -149 -116 -228 -5 -30 -12 -255 -16 -500 -7 -462 -12 -522 -54
-644 -12 -32 -37 -87 -56 -122 -42 -75 -44 -105 -9 -133 39 -31 71 -27 110 15
19 19 34 40 34 46 0 6 23 -10 50 -36 207 -193 578 -136 864 133 117 111 215
311 216 443 0 33 4 40 38 57 54 27 135 103 170 158 93 146 112 337 47 482
l-26 57 35 53 c41 61 54 101 63 193 14 158 -66 349 -188 451 l-42 34 2 85 c1
46 -3 107 -10 134 -42 175 -170 313 -351 379 -53 19 -63 27 -74 56 -81 234
-334 400 -569 373 -117 -13 -221 -59 -295 -130 l-36 -34 -46 43 c-114 106
-305 151 -472 111z m-643 -2093 c77 -23 222 -41 324 -41 l68 0 -3 -85 c-4
-105 14 -165 70 -236 48 -61 108 -101 195 -130 117 -39 172 -111 173 -227 0
-133 -68 -212 -183 -212 -74 0 -139 35 -221 119 -78 81 -111 147 -128 253
l-12 76 -57 6 c-162 16 -297 124 -345 274 -17 54 -17 193 0 221 9 14 15 13
119 -18z"/>
<path d="M4690 5650 l0 -390 70 0 70 0 1 268 0 267 112 -222 112 -223 53 0 53
0 109 222 110 221 0 -266 0 -267 70 0 70 0 0 390 0 391 -87 -3 -87 -3 -107
-228 c-59 -126 -113 -243 -119 -260 l-10 -31 -44 94 c-23 52 -79 170 -122 262
l-79 168 -87 0 -88 0 0 -390z"/>
<path d="M6920 5910 l0 -70 -40 0 -40 0 0 -65 0 -65 39 0 40 0 3 -174 c3 -159
5 -177 24 -203 38 -51 80 -67 169 -68 l80 0 3 55 3 55 -49 -3 c-44 -3 -52 -1
-71 23 -19 25 -21 40 -21 171 l0 144 70 0 70 0 0 65 0 65 -70 0 -70 0 0 70 0
70 -70 0 -70 0 0 -70z"/>
<path d="M5772 5837 c-52 -16 -122 -85 -132 -129 l-8 -38 70 0 c62 0 71 3 91
26 46 53 164 39 187 -22 23 -60 20 -62 -102 -66 -93 -3 -122 -8 -160 -26 -100
-49 -127 -177 -56 -268 62 -78 238 -87 302 -15 26 29 36 26 36 -9 l0 -30 65 0
65 0 0 204 c0 125 -4 216 -11 237 -33 98 -117 149 -239 148 -41 -1 -90 -6
-108 -12z m215 -364 c-4 -38 -12 -54 -41 -80 -30 -28 -43 -33 -85 -33 -63 0
-101 28 -101 74 0 64 37 85 149 86 l84 0 -6 -47z"/>
<path d="M6462 5829 c-23 -12 -47 -30 -53 -40 -15 -30 -29 -22 -29 16 l0 35
-65 0 -65 0 0 -290 0 -290 70 0 70 0 0 175 c0 189 10 240 54 269 64 41 146 21
178 -44 15 -29 18 -64 18 -217 l0 -183 65 0 65 0 0 218 c0 242 -7 272 -69 325
-60 50 -166 62 -239 26z"/>
<path d="M7515 5836 c-16 -7 -45 -28 -62 -46 l-33 -34 0 42 0 42 -65 0 -65 0
0 -290 0 -290 70 0 70 0 0 173 c0 144 3 178 18 206 25 51 60 72 130 78 l62 6
0 63 0 64 -47 0 c-27 -1 -61 -7 -78 -14z"/>
<path d="M7826 5835 c-73 -26 -136 -92 -136 -141 0 -23 3 -24 65 -24 55 0 68
4 88 24 64 64 180 37 193 -45 l6 -37 -113 -4 c-99 -3 -120 -7 -158 -28 -24
-14 -53 -37 -63 -51 -42 -56 -42 -151 -1 -208 61 -84 241 -97 307 -22 26 29
36 26 36 -9 l0 -30 65 0 65 0 0 204 c0 125 -4 216 -11 237 -32 96 -117 149
-234 148 -38 0 -88 -6 -109 -14z m214 -352 c0 -43 -27 -90 -62 -109 -13 -8
-45 -13 -71 -14 -74 0 -115 52 -91 115 11 28 64 44 147 45 l77 0 0 -37z"/>
<path d="M8505 5833 c-16 -8 -42 -27 -57 -41 l-28 -26 0 37 0 37 -65 0 -65 0
0 -290 0 -290 70 0 70 0 0 180 c0 133 4 190 14 215 26 62 98 89 159 60 60 -28
67 -57 67 -269 l0 -186 71 0 71 0 -4 223 c-3 241 -6 253 -65 309 -59 56 -173
76 -238 41z"/>
<path d="M9036 5834 c-76 -28 -136 -91 -136 -144 0 -18 6 -20 71 -20 64 0 73
3 90 25 53 67 189 26 189 -56 l0 -26 -113 -5 c-96 -3 -119 -8 -157 -29 -63
-34 -90 -79 -90 -146 0 -106 61 -172 165 -181 80 -7 121 5 166 45 l39 35 0
-36 0 -36 65 0 65 0 0 213 c0 185 -3 217 -19 253 -22 49 -78 97 -130 113 -52
15 -157 13 -205 -5z m216 -352 c-6 -79 -55 -122 -137 -122 -77 0 -119 62 -79
118 24 34 50 41 139 39 l80 -2 -3 -33z"/>
<path d="M5490 4596 l0 -394 75 -4 75 -3 0 398 0 397 -75 0 -75 0 0 -394z"/>
<path d="M4914 4908 c-15 -40 -82 -216 -149 -390 l-122 -318 81 0 81 0 30 81
30 81 159 -1 c87 0 160 -2 163 -5 2 -2 17 -37 32 -78 l27 -73 77 -5 c48 -3 77
-1 77 5 0 6 -67 181 -148 390 l-148 380 -81 3 -81 3 -28 -73z m222 -390 c5
-16 -5 -18 -111 -18 -89 0 -116 3 -113 13 3 6 29 78 59 159 l54 146 52 -141
c29 -78 56 -150 59 -159z"/>
<path d="M3165 4306 c-109 -48 -128 -201 -36 -279 92 -77 222 -45 266 65 56
140 -90 276 -230 214z"/>
</g>
</svg>
